<svg width="18" height="14" viewBox="0 0 18 14" fill="none" xmlns="http://www.w3.org/2000/svg">
<path d="M16.1594 9.69195V8.61552H15.082V7.5385H14.0047V6.46149H12.9273V7.5385V8.61552H11.8499H10.7725H9.69518H8.61839H7.54102H6.46365H5.38628H4.3089V7.5385H3.23154V6.46149V5.38448V4.30747V3.23046V2.15345V1.07643V0H2.15417H1.07679H0V1.07643V2.15345V3.23046V4.30747V5.38448V6.46149V7.5385V8.61552V9.69195V10.769H1.07679V11.846H2.15417H3.23154H4.3089H5.38628H6.46365H7.54102H8.61839H9.69518H10.7725H11.8499H12.9273V12.923V14H14.0047V12.923H15.082V11.846H16.1594V10.769H17.2362V9.69195H16.1594Z" fill="#393939"/>
</svg>
