<svg width="39" height="12" viewBox="0 0 39 12" fill="none" xmlns="http://www.w3.org/2000/svg">
<path d="M9.09995 5.19794V3.89828H7.79986V2.59862H6.49977V1.29966H5.19967V0H3.89958H2.59949H1.2994H0V1.29966H1.2994V2.59862H2.59949V3.89828H3.89958V5.19794H5.19967V6.4976H3.89958V7.79726H2.59949V9.09692H1.2994V10.3966H0V11.6962H1.2994H2.59949H3.89958H5.19967V10.3966H6.49977V9.09692H7.79986V7.79726H9.09995V6.4976H10.4V5.19794H9.09995Z" fill="#393939"/>
<path d="M23.3996 5.19794V3.89828H22.0995V2.59862H20.8001V1.29966H19.5001V0H18.2H16.8999H15.5998H14.2997V1.29966H15.5998V2.59862H16.8999V3.89828H18.2V5.19794H19.5001V6.4976H18.2V7.79726H16.8999V9.09692H15.5998V10.3966H14.2997V11.6962H15.5998H16.8999H18.2H19.5001V10.3966H20.8001V9.09692H22.0995V7.79726H23.3996V6.4976H24.6997V5.19794H23.3996Z" fill="#393939"/>
<path d="M37.6999 5.19794V3.89828H36.3998V2.59862H35.0997V1.29966H33.7996V0H32.4996H31.2002H29.9001H28.6V1.29966H29.9001V2.59862H31.2002V3.89828H32.4996V5.19794H33.7996V6.4976H32.4996V7.79726H31.2002V9.09692H29.9001V10.3966H28.6V11.6962H29.9001H31.2002H32.4996H33.7996V10.3966H35.0997V9.09692H36.3998V7.79726H37.6999V6.4976H39V5.19794H37.6999Z" fill="#393939"/>
</svg>
