<svg width="358" height="95" viewBox="0 0 358 95" fill="none" xmlns="http://www.w3.org/2000/svg">
<g filter="url(#filter0_ii_18_4829)">
<path d="M18.41 94H4.865C2.94 94 2.45 93.475 2.45 91.725V70.2C2.45 68.38 2.94 67.855 4.865 67.855H15.785C19.775 67.855 21.105 68.835 21.105 72.125V76.815C21.105 78.635 20.125 79.23 20.125 79.93C20.125 80.28 20.335 80.665 21.315 81.645C22.365 82.695 22.645 83.5 22.645 85.495V89.485C22.645 92.495 21.84 94 18.41 94ZM15.085 88.05V84.55C15.085 83.29 14.455 82.695 13.09 82.695H9.345C8.89 82.695 8.645 82.94 8.645 83.5V88.855C8.645 89.345 8.89 89.555 9.38 89.555H13.58C14.7 89.555 15.085 89.135 15.085 88.05ZM14.455 76.85V73.735C14.455 72.65 13.93 72.265 12.88 72.265H9.38C8.89 72.265 8.645 72.51 8.645 73V77.83C8.645 78.32 8.925 78.6 9.45 78.6H12.845C13.825 78.6 14.455 77.97 14.455 76.85ZM46.3977 94H40.3427C35.0927 94 33.0627 92.845 33.0627 87.14V75.1C33.0627 69.045 34.3227 67.855 40.3427 67.855H44.9977C50.2477 67.855 52.2777 69.08 52.2777 73.98V87.175C52.2777 91.725 51.4027 94 46.3977 94ZM46.5027 86.965V75.73C46.5027 73.175 46.1177 72.37 44.6827 72.37H41.9177C40.3427 72.37 40.0627 73.175 40.0627 75.415V86.965C40.0627 88.435 40.1677 89.485 41.9177 89.485H44.6477C46.0827 89.485 46.5027 88.855 46.5027 86.965ZM83.2242 85.775V92.81C83.2242 93.58 82.8042 94 81.9992 94H77.0992C76.2592 94 75.8742 93.58 75.8742 92.81V86.16C75.8742 84.305 75.2442 83.85 73.6692 83.85H69.9242C69.4692 83.85 69.2592 84.095 69.2592 84.655V92.81C69.2592 93.58 68.8392 94 68.0342 94H64.5692C63.7292 94 63.3092 93.58 63.3092 92.81V70.2C63.3092 68.38 63.7992 67.855 65.7242 67.855H76.5042C80.9492 67.855 82.0692 68.975 82.0692 72.86V77.795C82.0692 79.545 81.0542 80.595 81.0542 81.05C81.0542 81.61 83.2242 82.695 83.2242 85.775ZM75.2442 77.655V74.295C75.2442 72.685 74.7192 72.3 73.0742 72.3H69.9592C69.4692 72.3 69.2592 72.545 69.2592 73.035V78.74C69.2592 79.23 69.5042 79.475 70.0292 79.475H73.6342C74.7192 79.475 75.2442 78.88 75.2442 77.655ZM100.748 74.785V87.14C100.748 89.065 101.133 89.415 102.358 89.415H106.173C106.698 89.415 106.943 89.17 106.943 88.645V85.18C106.943 83.57 105.543 84.06 105.543 82.765V81.015C105.543 80.35 105.963 79.93 106.768 79.93H111.808C112.753 79.93 113.173 80.385 113.173 81.26V89.835C113.173 93.09 112.473 94 109.008 94H101.973C94.9735 94 93.8535 92.565 93.8535 86.72V75.135C93.8535 69.29 94.9735 67.855 101.973 67.855H106.278C110.758 67.855 112.788 68.765 112.788 73V74.295C112.788 74.925 112.473 75.24 111.843 75.24H107.713C107.223 75.24 106.943 74.995 106.943 74.505V73.84C106.943 72.86 106.698 72.51 105.613 72.51H102.358C101.133 72.51 100.748 72.825 100.748 74.785ZM139.464 83.01H132.149C131.589 83.01 131.274 83.325 131.274 83.955V88.47C131.274 88.96 131.554 89.205 132.009 89.205H140.024C140.654 89.205 140.934 89.52 140.934 90.115V92.95C140.934 93.65 140.619 94 139.954 94H126.689C125.009 94 124.134 93.23 124.134 91.62V69.78C124.134 68.52 124.799 67.855 126.094 67.855H139.674C140.304 67.855 140.619 68.17 140.619 68.8V71.74C140.619 72.37 140.304 72.685 139.674 72.685H131.939C131.484 72.685 131.274 72.895 131.274 73.35V77.76C131.274 78.25 131.484 78.495 131.939 78.495H139.429C140.024 78.495 140.304 78.81 140.304 79.405V82.03C140.304 82.625 140.024 82.94 139.464 83.01ZM157.864 74.855V76.535C157.864 77.55 157.934 77.76 158.844 77.9L165.669 78.95C169.239 79.51 170.079 80.7 170.079 83.955V86.72C170.079 92.565 168.959 94 162.379 94H157.689C153.769 94 151.494 92.985 151.494 88.89V87.42C151.494 86.79 151.774 86.51 152.404 86.51H156.429C156.919 86.51 157.199 86.72 157.199 87.21V88.225C157.199 89.03 157.514 89.31 158.599 89.31H161.679C162.904 89.31 163.289 88.96 163.289 87.035V85.495C163.289 84.585 162.904 84.305 162.169 84.2L156.009 83.22C152.614 82.695 151.389 81.575 151.389 77.9V75.135C151.389 69.29 152.509 67.855 159.229 67.855H162.554C167.699 67.855 169.589 68.625 169.589 73V74.05C169.589 74.715 169.274 74.995 168.644 74.995H164.794C164.304 74.995 164.059 74.785 164.059 74.295V73.91C164.059 72.93 163.779 72.58 162.729 72.58H159.474C158.249 72.58 157.864 72.895 157.864 74.855ZM203.479 74.855V76.535C203.479 77.55 203.549 77.76 204.459 77.9L211.284 78.95C214.854 79.51 215.694 80.7 215.694 83.955V86.72C215.694 92.565 214.574 94 207.994 94H203.304C199.384 94 197.109 92.985 197.109 88.89V87.42C197.109 86.79 197.389 86.51 198.019 86.51H202.044C202.534 86.51 202.814 86.72 202.814 87.21V88.225C202.814 89.03 203.129 89.31 204.214 89.31H207.294C208.519 89.31 208.904 88.96 208.904 87.035V85.495C208.904 84.585 208.519 84.305 207.784 84.2L201.624 83.22C198.229 82.695 197.004 81.575 197.004 77.9V75.135C197.004 69.29 198.124 67.855 204.844 67.855H208.169C213.314 67.855 215.204 68.625 215.204 73V74.05C215.204 74.715 214.889 74.995 214.259 74.995H210.409C209.919 74.995 209.674 74.785 209.674 74.295V73.91C209.674 72.93 209.394 72.58 208.344 72.58H205.089C203.864 72.58 203.479 72.895 203.479 74.855ZM239.358 94H233.303C228.053 94 226.023 92.845 226.023 87.14V75.1C226.023 69.045 227.283 67.855 233.303 67.855H237.958C243.208 67.855 245.238 69.08 245.238 73.98V87.175C245.238 91.725 244.363 94 239.358 94ZM239.463 86.965V75.73C239.463 73.175 239.078 72.37 237.643 72.37H234.878C233.303 72.37 233.023 73.175 233.023 75.415V86.965C233.023 88.435 233.128 89.485 234.878 89.485H237.608C239.043 89.485 239.463 88.855 239.463 86.965ZM263.235 69.115V88.4C263.235 88.96 263.515 89.275 264.075 89.275H270.9C271.53 89.275 271.81 89.555 271.81 90.185V92.95C271.81 93.65 271.53 94 270.9 94H259.84C257.495 94 256.27 92.845 256.27 90.5V69.115C256.27 68.275 256.69 67.855 257.53 67.855H262.01C262.815 67.855 263.235 68.275 263.235 69.115ZM290.126 73.875V80.105C290.126 80.77 290.476 81.12 291.106 81.12H294.886C295.516 81.12 295.831 80.77 295.831 80.105V73.875C295.831 73 295.551 72.51 294.641 72.51H291.491C290.476 72.51 290.126 72.93 290.126 73.875ZM302.936 84.585V92.74C302.936 93.58 302.586 94 301.886 94H298.001C297.301 94 296.951 93.58 296.951 92.74V86.44C296.951 85.81 296.671 85.53 296.111 85.53H289.356C288.796 85.53 288.516 85.81 288.516 86.44V92.74C288.516 93.58 288.201 94 287.501 94H282.531C281.761 94 281.411 93.58 281.411 92.74V84.235C281.411 82.905 281.586 82.555 282.461 81.785C283.056 81.26 283.336 80.91 283.336 80.21V71.53C283.336 68.835 284.596 67.855 287.151 67.855H297.056C299.856 67.855 300.661 68.835 300.661 71.53V80.595C300.661 81.295 301.011 81.61 301.711 82.17C302.656 82.87 302.936 83.29 302.936 84.585ZM333.763 85.775V92.81C333.763 93.58 333.343 94 332.538 94H327.638C326.798 94 326.413 93.58 326.413 92.81V86.16C326.413 84.305 325.783 83.85 324.208 83.85H320.463C320.008 83.85 319.798 84.095 319.798 84.655V92.81C319.798 93.58 319.378 94 318.573 94H315.108C314.268 94 313.848 93.58 313.848 92.81V70.2C313.848 68.38 314.338 67.855 316.263 67.855H327.043C331.488 67.855 332.608 68.975 332.608 72.86V77.795C332.608 79.545 331.593 80.595 331.593 81.05C331.593 81.61 333.763 82.695 333.763 85.775ZM325.783 77.655V74.295C325.783 72.685 325.258 72.3 323.613 72.3H320.498C320.008 72.3 319.798 72.545 319.798 73.035V78.74C319.798 79.23 320.043 79.475 320.568 79.475H324.173C325.258 79.475 325.783 78.88 325.783 77.655ZM350.797 67.855C351.637 67.855 352.057 68.275 352.057 69.115V92.81C352.057 93.58 351.637 94 350.797 94H345.932C345.092 94 344.707 93.58 344.707 92.81V69.115C344.707 68.275 345.092 67.855 345.932 67.855H350.797Z" fill="#110078"/>
</g>
<g filter="url(#filter1_ii_18_4829)">
<path d="M28.625 64H19.87C17.745 64 16.81 62.98 16.81 61.11V16.485C16.81 14.7 15.96 13.765 14.345 13.765H3.975C2.445 13.765 1.765 13.085 1.765 11.47V2.885C1.765 1.355 2.445 0.504997 3.975 0.504997H44.435C45.965 0.504997 46.73 1.27 46.73 2.8V11.47C46.73 13.085 45.965 13.765 44.435 13.765H34.065C32.535 13.765 31.77 14.7 31.77 16.485V61.11C31.77 62.98 30.75 64 28.625 64ZM101.936 44.025V61.11C101.936 62.98 100.916 64 98.9612 64H87.0612C85.0212 64 84.0862 62.98 84.0862 61.11V44.96C84.0862 40.455 82.5562 39.35 78.7312 39.35H69.6362C68.5312 39.35 68.0212 39.945 68.0212 41.305V61.11C68.0212 62.98 67.0012 64 65.0462 64H56.6312C54.5912 64 53.5712 62.98 53.5712 61.11V6.2C53.5712 1.78 54.7612 0.504997 59.4362 0.504997H85.6162C96.4112 0.504997 99.1312 3.225 99.1312 12.66V24.645C99.1312 28.895 96.6662 31.445 96.6662 32.55C96.6662 33.91 101.936 36.545 101.936 44.025ZM82.5562 24.305V16.145C82.5562 12.235 81.2812 11.3 77.2862 11.3H69.7212C68.5312 11.3 68.0212 11.895 68.0212 13.085V26.94C68.0212 28.13 68.6162 28.725 69.8912 28.725H78.6462C81.2812 28.725 82.5562 27.28 82.5562 24.305ZM128.104 0.504997C130.144 0.504997 131.164 1.525 131.164 3.565V61.11C131.164 62.98 130.144 64 128.104 64H116.289C114.249 64 113.314 62.98 113.314 61.11V3.565C113.314 1.525 114.249 0.504997 116.289 0.504997H128.104ZM157.858 17.505V21.585C157.858 24.05 158.028 24.56 160.238 24.9L176.813 27.45C185.483 28.81 187.523 31.7 187.523 39.605V46.32C187.523 60.515 184.803 64 168.823 64H157.433C147.913 64 142.388 61.535 142.388 51.59V48.02C142.388 46.49 143.068 45.81 144.598 45.81H154.373C155.563 45.81 156.243 46.32 156.243 47.51V49.975C156.243 51.93 157.008 52.61 159.643 52.61H167.123C170.098 52.61 171.033 51.76 171.033 47.085V43.345C171.033 41.135 170.098 40.455 168.313 40.2L153.353 37.82C145.108 36.545 142.133 33.825 142.133 24.9V18.185C142.133 3.99 144.853 0.504997 161.173 0.504997H169.248C181.743 0.504997 186.333 2.375 186.333 13V15.55C186.333 17.165 185.568 17.845 184.038 17.845H174.688C173.498 17.845 172.903 17.335 172.903 16.145V15.21C172.903 12.83 172.223 11.98 169.673 11.98H161.768C158.793 11.98 157.858 12.745 157.858 17.505ZM219.592 64H210.837C208.712 64 207.777 62.98 207.777 61.11V16.485C207.777 14.7 206.927 13.765 205.312 13.765H194.942C193.412 13.765 192.732 13.085 192.732 11.47V2.885C192.732 1.355 193.412 0.504997 194.942 0.504997H235.402C236.932 0.504997 237.697 1.27 237.697 2.8V11.47C237.697 13.085 236.932 13.765 235.402 13.765H225.032C223.502 13.765 222.737 14.7 222.737 16.485V61.11C222.737 62.98 221.717 64 219.592 64ZM261.201 15.125V30.255C261.201 31.87 262.051 32.72 263.581 32.72H272.761C274.291 32.72 275.056 31.87 275.056 30.255V15.125C275.056 13 274.376 11.81 272.166 11.81H264.516C262.051 11.81 261.201 12.83 261.201 15.125ZM292.311 41.135V60.94C292.311 62.98 291.461 64 289.761 64H280.326C278.626 64 277.776 62.98 277.776 60.94V45.64C277.776 44.11 277.096 43.43 275.736 43.43H259.331C257.971 43.43 257.291 44.11 257.291 45.64V60.94C257.291 62.98 256.526 64 254.826 64H242.756C240.886 64 240.036 62.98 240.036 60.94V40.285C240.036 37.055 240.461 36.205 242.586 34.335C244.031 33.06 244.711 32.21 244.711 30.51V9.43C244.711 2.885 247.771 0.504997 253.976 0.504997H278.031C284.831 0.504997 286.786 2.885 286.786 9.43V31.445C286.786 33.145 287.636 33.91 289.336 35.27C291.631 36.97 292.311 37.99 292.311 41.135ZM306.671 0.504997H335.656C347.131 0.504997 352.061 1.78 352.061 13.765V61.025C352.061 62.98 351.041 64 349.001 64H339.991C337.951 64 336.931 62.98 336.931 61.025V17.59C336.931 13.425 335.911 12.405 332.256 12.405H325.286C322.736 12.405 322.141 13.17 322.141 15.89V61.025C322.141 62.98 321.206 64 319.081 64H306.671C304.631 64 303.611 62.98 303.611 61.025V3.565C303.611 1.525 304.631 0.504997 306.671 0.504997Z" fill="#110078"/>
</g>
<defs>
<filter id="filter0_ii_18_4829" x="2.44995" y="67.855" width="349.607" height="26.145" filterUnits="userSpaceOnUse" color-interpolation-filters="sRGB">
<feFlood flood-opacity="0" result="BackgroundImageFix"/>
<feBlend mode="normal" in="SourceGraphic" in2="BackgroundImageFix" result="shape"/>
<feColorMatrix in="SourceAlpha" type="matrix" values="0 0 0 0 0 0 0 0 0 0 0 0 0 0 0 0 0 0 127 0" result="hardAlpha"/>
<feOffset dx="1" dy="-1"/>
<feComposite in2="hardAlpha" operator="arithmetic" k2="-1" k3="1"/>
<feColorMatrix type="matrix" values="0 0 0 0 0.795833 0 0 0 0 0 0 0 0 0 0.6685 0 0 0 1 0"/>
<feBlend mode="normal" in2="shape" result="effect1_innerShadow_18_4829"/>
<feColorMatrix in="SourceAlpha" type="matrix" values="0 0 0 0 0 0 0 0 0 0 0 0 0 0 0 0 0 0 127 0" result="hardAlpha"/>
<feOffset dx="-1" dy="1"/>
<feComposite in2="hardAlpha" operator="arithmetic" k2="-1" k3="1"/>
<feColorMatrix type="matrix" values="0 0 0 0 0 0 0 0 0 0.52 0 0 0 0 1 0 0 0 1 0"/>
<feBlend mode="normal" in2="effect1_innerShadow_18_4829" result="effect2_innerShadow_18_4829"/>
</filter>
<filter id="filter1_ii_18_4829" x="1.76489" y="0.504997" width="350.296" height="63.495" filterUnits="userSpaceOnUse" color-interpolation-filters="sRGB">
<feFlood flood-opacity="0" result="BackgroundImageFix"/>
<feBlend mode="normal" in="SourceGraphic" in2="BackgroundImageFix" result="shape"/>
<feColorMatrix in="SourceAlpha" type="matrix" values="0 0 0 0 0 0 0 0 0 0 0 0 0 0 0 0 0 0 127 0" result="hardAlpha"/>
<feOffset dx="3" dy="3"/>
<feComposite in2="hardAlpha" operator="arithmetic" k2="-1" k3="1"/>
<feColorMatrix type="matrix" values="0 0 0 0 0.795833 0 0 0 0 0 0 0 0 0 0.6685 0 0 0 1 0"/>
<feBlend mode="normal" in2="shape" result="effect1_innerShadow_18_4829"/>
<feColorMatrix in="SourceAlpha" type="matrix" values="0 0 0 0 0 0 0 0 0 0 0 0 0 0 0 0 0 0 127 0" result="hardAlpha"/>
<feOffset dx="-3" dy="-1"/>
<feComposite in2="hardAlpha" operator="arithmetic" k2="-1" k3="1"/>
<feColorMatrix type="matrix" values="0 0 0 0 0 0 0 0 0 0.52 0 0 0 0 1 0 0 0 1 0"/>
<feBlend mode="normal" in2="effect1_innerShadow_18_4829" result="effect2_innerShadow_18_4829"/>
</filter>
</defs>
</svg>
