<svg width="16" height="26" viewBox="0 0 16 26" fill="none" xmlns="http://www.w3.org/2000/svg">
<path d="M6.55738 7.21155H5.83643V7.93251H6.55738V7.21155Z" fill="white"/>
<path d="M7.27906 6.49054H6.55811V7.2115H7.27906H8.00002V6.49054H7.27906Z" fill="white"/>
<path d="M3.67298 2.88446H2.95203V3.60542H3.67298V2.88446Z" fill="#CB00AA"/>
<path d="M2.95191 2.88446H2.23096V3.60542H2.95191V2.88446Z" fill="#CB00AA"/>
<path d="M4.39393 2.88446H3.67297V3.60542H4.39393V2.88446Z" fill="#CB00AA"/>
<path d="M3.67298 2.16351H2.95203V2.88447H3.67298V2.16351Z" fill="#CB00AA"/>
<path d="M3.67298 3.60541H2.95203V4.32637H3.67298V3.60541Z" fill="#CB00AA"/>
<path d="M10.8844 0.720947H10.1635V1.4419H10.8844V0.720947Z" fill="#CB00AA"/>
<path d="M15.2114 3.60541H14.4905V4.32637H15.2114V3.60541Z" fill="#CB00AA"/>
<path d="M6.55738 0H5.83643V0.720958H6.55738V0Z" fill="#CB00AA"/>
<path d="M0.78846 8.65344H0.0675049V9.3744H0.78846V8.65344Z" fill="#CB00AA"/>
<path d="M10.1635 0.720947H9.4425V1.4419H10.1635V0.720947Z" fill="#CB00AA"/>
<path d="M11.6054 0.720947H10.8844V1.4419H11.6054V0.720947Z" fill="#CB00AA"/>
<path d="M10.8844 0H10.1635V0.720958H10.8844V0Z" fill="#CB00AA"/>
<path d="M10.8844 1.44257H10.1635V2.16352H10.8844V1.44257Z" fill="#CB00AA"/>
<path d="M13.048 7.93245V6.48989H12.327V5.76893H10.8844V5.04797H7.27901V5.76893H5.83644V6.48989H5.11549V7.93245H4.39453V9.37501H13.7696V7.93245H13.0486H13.048ZM5.83644 7.93245V7.21149H6.5574V6.49054H7.99996V7.21149H6.5574V7.93245H5.83644Z" fill="#0085FF"/>
<path d="M13.048 10.096H4.39453V11.5386H5.11549V12.2595H8.72092V11.5386H9.44188V12.2595H13.0473V11.5386H13.7683V10.096H13.0473H13.048ZM5.83644 11.5386V10.8176H6.5574V11.5386H5.83644ZM7.27901 11.5386V10.8176H7.99996V11.5386H7.27901ZM10.1635 11.5386V10.8176H10.8844V11.5386H10.1635ZM11.606 11.5386V10.8176H12.327V11.5386H11.606Z" fill="#88F4FF"/>
<path d="M4.39453 7.2115V7.93245H5.11549V7.2115V6.49054H4.39453V7.2115Z" fill="#110078"/>
<path d="M5.83643 5.76898H5.11548V6.48994H5.83643V5.76898Z" fill="#110078"/>
<path d="M5.83643 5.04797V5.76893H6.55803H7.27899V5.04797H6.55803H5.83643Z" fill="#110078"/>
<path d="M13.7689 6.49054H13.048V7.2115V7.93245H13.7689V7.2115V6.49054Z" fill="#110078"/>
<path d="M3.67297 8.65345V9.37506H4.39458V8.65345V7.9325H3.67297V8.65345Z" fill="#110078"/>
<path d="M13.7689 7.9325V8.65345V9.37506H14.4905V8.65345V7.9325H13.7689Z" fill="#110078"/>
<path d="M13.048 5.76898H12.327V6.48994H13.048V5.76898Z" fill="#110078"/>
<path d="M11.606 5.04797H10.8844V5.76893H11.606H12.327V5.04797H11.606Z" fill="#110078"/>
<path d="M10.1635 4.32703H9.44257H8.72097H8.00001H7.27905V5.04798H8.00001H8.72097H9.44257H10.1635H10.8845V4.32703H10.1635Z" fill="#110078"/>
<path d="M14.4906 21.6346H13.769H13.048V20.913H12.3271H11.6061H10.8845H10.1635H9.44259H8.72098H8.00002H7.27907V21.6346V22.3555H6.55811V21.6346V20.913H5.8365H5.11555V21.6346H4.39459H3.67299H2.95203V22.3555V23.0765H3.67299V23.7974H4.39459H5.11555V24.519H5.8365H6.55811H7.27907H8.00002H8.72098H9.44259H10.1635H10.8845H11.6061H12.3271H13.048V23.7974H13.769H14.4906V23.0765H15.2115V22.3555V21.6346H14.4906Z" fill="#FFF278"/>
<path d="M5.8365 20.192H7.27907V18.0285H8.00002V15.865H8.72098V18.0285H8.00002V20.192H13.048V20.913H14.4906V20.192H13.7696V18.7494H13.0487V17.3069H12.3277V15.8643H11.6068V14.4217H10.8858V12.9792H9.44324V14.4217H8.72228V12.9792H7.27971V14.4217H6.55876V15.8643H5.8378V17.3069H5.11684V18.7494H4.39588V20.192H3.67493V20.913H5.11749V20.192H5.83845H5.8365ZM10.8845 19.471V18.0285H10.1635V16.5859H10.8845V18.0285H11.6055V19.471H10.8845Z" fill="#FFF278"/>
<path d="M4.39459 21.6346H5.11555V20.913H4.39459H3.67299V20.192H2.95203V20.913V21.6346H3.67299H4.39459Z" fill="#CB00AA"/>
<path d="M6.55804 20.9129V21.6345V22.3555H7.279V21.6345V20.9129H7.99995H8.72091H9.44252H10.1635H10.8844H11.606H12.327H13.048V20.192H12.327H11.606H10.8844H10.1635H9.44252H8.72091H7.99995V19.471V18.7494V18.0284H7.279V18.7494V19.471V20.192H6.55804H5.83643H5.11548V20.9129H5.83643H6.55804Z" fill="#CB00AA"/>
<path d="M13.7689 21.6346H14.4905H15.2115V20.913V20.192H14.4905V20.913H13.7689H13.048V21.6346H13.7689Z" fill="#CB00AA"/>
<path d="M4.39458 19.4711V18.7495H3.67297V19.4711V20.192H4.39458V19.4711Z" fill="#CB00AA"/>
<path d="M7.27906 13.7014V12.9805H6.55811V13.7014V14.423H7.27906V13.7014Z" fill="#CB00AA"/>
<path d="M6.55803 15.144V14.423H5.83643V15.144V15.8649H6.55803V15.144Z" fill="#CB00AA"/>
<path d="M5.83643 16.5865V15.8649H5.11548V16.5865V17.3075H5.83643V16.5865Z" fill="#CB00AA"/>
<path d="M5.11549 18.0285V17.3075H4.39453V18.0285V18.7494H5.11549V18.0285Z" fill="#CB00AA"/>
<path d="M8.72096 17.3075V16.5865V15.8649H8V16.5865V17.3075V18.0284H8.72096V17.3075Z" fill="#CB00AA"/>
<path d="M10.8844 19.471H11.606V18.7494V18.0284H10.8844V18.7494V19.471Z" fill="#CB00AA"/>
<path d="M10.8844 17.3075V16.5865H10.1635V17.3075V18.0285H10.8844V17.3075Z" fill="#CB00AA"/>
<path d="M2.95191 21.6346H2.23096V22.3555V23.0765H2.95191V22.3555V21.6346Z" fill="#CB00AA"/>
<path d="M3.67298 23.0765H2.95203V23.7974H3.67298V23.0765Z" fill="#CB00AA"/>
<path d="M4.39458 23.7974H3.67297V24.519H4.39458H5.11554V23.7974H4.39458Z" fill="#CB00AA"/>
<path d="M15.2114 23.0765H14.4905V23.7974H15.2114V23.0765Z" fill="#CB00AA"/>
<path d="M13.048 23.7974V24.519H13.7689H14.4905V23.7974H13.7689H13.048Z" fill="#CB00AA"/>
<path d="M11.606 24.519H10.8844H10.1635H9.44252H8.72091H7.99995H7.279H6.55804H5.83643H5.11548V25.24H5.83643H6.55804H7.279H7.99995H8.72091H9.44252H10.1635H10.8844H11.606H12.327H13.048V24.519H12.327H11.606Z" fill="#CB00AA"/>
<path d="M11.606 12.9805H10.8844V13.7014V14.423H11.606V13.7014V12.9805Z" fill="#CB00AA"/>
<path d="M12.327 14.423H11.6061V15.144V15.8649H12.327V15.144V14.423Z" fill="#CB00AA"/>
<path d="M13.048 15.8649H12.327V16.5865V17.3075H13.048V16.5865V15.8649Z" fill="#CB00AA"/>
<path d="M13.7689 17.3075H13.048V18.0285V18.7494H13.7689V18.0285V17.3075Z" fill="#CB00AA"/>
<path d="M14.4905 18.7495H13.7689V19.4711V20.192H14.4905V19.4711V18.7495Z" fill="#CB00AA"/>
<path d="M15.2115 21.6346V22.3555V23.0765H15.9325V22.3555V21.6346H15.2115Z" fill="#CB00AA"/>
<path d="M5.11549 11.5386H4.39453V12.2595H5.11549V11.5386Z" fill="#52C5D8"/>
<path d="M2.95203 12.2595V12.9805V13.7014V14.4231H3.67298V13.7014V12.9805V12.2595V11.5386H2.95203V12.2595Z" fill="#52C5D8"/>
<path d="M14.4906 10.096H15.2115V9.37506H14.4906H13.769H13.048H12.3271H11.6061H10.8845H10.1635H9.44259H8.72098H8.00002H7.27907H6.55811H5.8365H5.11555H4.39459H3.67299H2.95203V10.096H3.67299V10.817V11.5386H4.39459V10.817V10.096H5.11555H5.8365H6.55811H7.27907H8.00002H8.72098H9.44259H10.1635H10.8845H11.6061H12.3271H13.048H13.769V10.817V11.5386H14.4906V10.817V10.096Z" fill="#52C5D8"/>
<path d="M13.7689 11.5386H13.048V12.2595H13.7689V11.5386Z" fill="#52C5D8"/>
<path d="M11.606 12.2595H10.8844H10.1635H9.44252V11.5386H8.72091V12.2595H7.99995H7.279H6.55804H5.83643H5.11548V12.9805H5.83643H6.55804H7.279H7.99995H8.72091V13.7014V14.4231H9.44252V13.7014V12.9805H10.1635H10.8844H11.606H12.327H13.048V12.2595H12.327H11.606Z" fill="#52C5D8"/>
<path d="M14.4905 12.9805V13.7014V14.4231H15.2114V13.7014V12.9805V12.2595V11.5386H14.4905V12.2595V12.9805Z" fill="#52C5D8"/>
<path d="M6.55738 10.817H5.83643V11.5379H6.55738V10.817Z" fill="#52C5D8"/>
<path d="M8.00001 10.817H7.27905V11.5379H8.00001V10.817Z" fill="#52C5D8"/>
<path d="M10.8844 10.817H10.1635V11.5379H10.8844V10.817Z" fill="#52C5D8"/>
<path d="M12.327 10.817H11.6061V11.5379H12.327V10.817Z" fill="#52C5D8"/>
</svg>
