<svg width="18" height="18" viewBox="0 0 18 18" fill="none" xmlns="http://www.w3.org/2000/svg">
<path d="M1.2915 1.18628H4.8497V2.37191H6.03533V3.55819H7.22096V4.74382H8.40724V5.92946H9.59287V7.11574H10.7792V8.30137H11.9648V9.48765H13.1511V10.6733H14.3367V11.8589H15.5223V13.0452H16.7086V16.6027H13.1511V15.4171H11.9648V14.2308H10.7792V13.0452H9.59287V11.8589H8.40724V10.6733H7.22096V9.48765H6.03533V8.30137H4.8497V7.11574H3.66342V5.92946H2.47778V4.74382H1.2915V1.18628Z" fill="#EC80FF"/>
<path d="M16.7086 1.18628H13.1511V2.37191H11.9648V3.55819H10.7792V4.74382H9.59287V5.92946H8.40724V7.11574H7.22096V8.30137H6.03533V9.48765H4.8497V10.6733H3.66342V11.8589H2.47778V13.0452H1.2915V16.6027H4.8497V15.4171H6.03533V14.2308H7.22096V13.0452H8.40724V11.8589H9.59287V10.6733H10.7792V9.48765H11.9648V8.30137H13.1511V7.11574H14.3367V5.92946H15.5223V4.74382H16.7086V1.18628Z" fill="#FFF278"/>
<path d="M6.03528 2.37191V1.18628H4.84965V2.37191H6.03528Z" fill="#BE4DCE"/>
<path d="M7.22156 3.55752V2.37189H6.03593V3.55752H7.22156Z" fill="#BE4DCE"/>
<path d="M8.40662 4.74319V3.55756H7.22098V4.74319H8.40662Z" fill="#BE4DCE"/>
<path d="M2.47778 5.92947V4.74384H1.29215V5.92947H2.47778Z" fill="#BE4DCE"/>
<path d="M3.66333 3.55752V2.37189H2.4777V3.55752H3.66333Z" fill="#BE4DCE"/>
<path d="M4.849 4.74319V3.55756H3.66337V4.74319H4.849Z" fill="#BE4DCE"/>
<path d="M6.03528 5.92947V4.74384H4.84965V5.92947H6.03528Z" fill="#BE4DCE"/>
<path d="M3.66406 7.11575V5.93011H2.47843V7.11575H3.66406Z" fill="#BE4DCE"/>
<path d="M4.849 8.30136V7.11572H3.66337V8.30136H4.849Z" fill="#BE4DCE"/>
<path d="M11.9647 15.4171V16.6027H13.1504V15.4171H11.9647Z" fill="#BE4DCE"/>
<path d="M10.7784 14.2308V15.4164H11.9641V14.2308H10.7784Z" fill="#BE4DCE"/>
<path d="M9.5929 13.0458V14.2314H10.7785V13.0458H9.5929Z" fill="#BE4DCE"/>
<path d="M15.5223 11.8595V13.0452H16.708V11.8595H15.5223Z" fill="#BE4DCE"/>
<path d="M14.3367 14.2315V15.4171H15.5223V14.2315H14.3367Z" fill="#BE4DCE"/>
<path d="M13.151 13.0452V14.2308H14.3366V13.0452H13.151Z" fill="#BE4DCE"/>
<path d="M11.9647 11.8595V13.0452H13.1504V11.8595H11.9647Z" fill="#BE4DCE"/>
<path d="M14.3367 10.6733V11.8589H15.5223V10.6733H14.3367Z" fill="#BE4DCE"/>
<path d="M13.151 9.48765V10.6733H14.3366V9.48765H13.151Z" fill="#BE4DCE"/>
<path d="M2.47778 0H1.2915V1.18628H2.47778H3.66342H4.84969V0H3.66342H2.47778Z" fill="#BE4DCE"/>
<path d="M0.105835 2.37191V3.55819V4.74382H1.29147V3.55819V2.37191V1.18628H0.105835V2.37191Z" fill="#BE4DCE"/>
<path d="M14.3366 16.6027H13.151V17.789H14.3366H15.5223H16.7085V16.6027H15.5223H14.3366Z" fill="#BE4DCE"/>
<path d="M16.7086 13.0452V14.2308V15.4171V16.6027H17.8943V15.4171V14.2308V13.0452H16.7086Z" fill="#BE4DCE"/>
<path d="M9.59286 4.74384H8.40723V5.92947H9.59286V4.74384Z" fill="#D19E43"/>
<path d="M6.03524 8.30139H4.84961V9.48702H6.03524V8.30139Z" fill="#D19E43"/>
<path d="M9.59286 11.8589H8.40723V13.0445H9.59286V11.8589Z" fill="#D19E43"/>
<path d="M7.22091 7.11572H6.03528V8.30136H7.22091V7.11572Z" fill="#D19E43"/>
<path d="M10.7785 10.6733H9.5929V11.8589H10.7785V10.6733Z" fill="#D19E43"/>
<path d="M8.40658 5.92944H7.22095V7.11507H8.40658V5.92944Z" fill="#D19E43"/>
<path d="M11.9647 9.48767H10.7791V10.6733H11.9647V9.48767Z" fill="#D19E43"/>
<path d="M13.1504 8.30139H11.9647V9.48702H13.1504V8.30139Z" fill="#D19E43"/>
<path d="M16.708 4.74384H15.5223V5.92947H16.708V4.74384Z" fill="#D19E43"/>
<path d="M15.5223 5.92944H14.3367V7.11507H15.5223V5.92944Z" fill="#D19E43"/>
<path d="M14.3366 7.11572H13.151V8.30136H14.3366V7.11572Z" fill="#D19E43"/>
<path d="M13.1504 1.18628H11.9647V2.37191H13.1504V1.18628Z" fill="#D19E43"/>
<path d="M15.5223 2.37189H14.3367V3.55752H15.5223V2.37189Z" fill="#D19E43"/>
<path d="M14.3366 3.55817H13.151V4.7438H14.3366V3.55817Z" fill="#D19E43"/>
<path d="M13.1504 4.74384H11.9647V5.92947H13.1504V4.74384Z" fill="#D19E43"/>
<path d="M11.9647 2.37189H10.7791V3.55752H11.9647V2.37189Z" fill="#D19E43"/>
<path d="M10.7785 3.55817H9.5929V4.7438H10.7785V3.55817Z" fill="#D19E43"/>
<path d="M16.7086 1.18628V2.37191V3.55819V4.74382H17.8943V3.55819V2.37191V1.18628H16.7086Z" fill="#D19E43"/>
<path d="M15.5223 1.18628H16.7085V0H15.5223H14.3366H13.151V1.18628H14.3366H15.5223Z" fill="#D19E43"/>
<path d="M2.47714 11.8589H1.2915V13.0445H2.47714V11.8589Z" fill="#D19E43"/>
<path d="M3.66342 10.6733H2.47778V11.8589H3.66342V10.6733Z" fill="#D19E43"/>
<path d="M4.84896 9.48767H3.66333V10.6733H4.84896V9.48767Z" fill="#D19E43"/>
<path d="M6.03524 15.4171H4.84961V16.6027H6.03524V15.4171Z" fill="#D19E43"/>
<path d="M3.66342 14.2308H2.47778V15.4165H3.66342V14.2308Z" fill="#D19E43"/>
<path d="M4.84896 13.0452H3.66333V14.2308H4.84896V13.0452Z" fill="#D19E43"/>
<path d="M6.03524 11.8589H4.84961V13.0445H6.03524V11.8589Z" fill="#D19E43"/>
<path d="M9.59286 8.30139H8.40723V9.48702H9.59286V8.30139Z" fill="#D19E43"/>
<path d="M7.22091 14.2308H6.03528V15.4165H7.22091V14.2308Z" fill="#D19E43"/>
<path d="M8.40658 13.0452H7.22095V14.2308H8.40658V13.0452Z" fill="#D19E43"/>
<path d="M1.29147 14.2308V13.0452H0.105835V14.2308V15.4171V16.6027H1.29147V15.4171V14.2308Z" fill="#D19E43"/>
<path d="M2.47778 16.6027H1.2915V17.789H2.47778H3.66342H4.84969V16.6027H3.66342H2.47778Z" fill="#D19E43"/>
</svg>
