<svg width="20" height="23" viewBox="0 0 20 23" fill="none" xmlns="http://www.w3.org/2000/svg">
<path d="M17.2073 6.17731H1.76306V21.6216H18.237V6.17731H17.2073ZM17.2073 18.5326H16.1777V19.5623H3.82238V18.5326H2.79273V8.23663H3.82238V7.20697H16.1777V8.23663H17.2073V18.5326Z" fill="#CB00AA"/>
<path d="M5.88172 8.23663H3.82239V18.5326H5.88172V8.23663Z" fill="#88F4FF"/>
<path d="M7.94103 8.23663H5.88171V18.5326H7.94103V8.23663Z" fill="#FFA4C0"/>
<path d="M10.0004 8.23663H7.94104V18.5326H10.0004V8.23663Z" fill="#FFF278"/>
<path d="M12.0597 8.23663H10.0004V18.5326H12.0597V8.23663Z" fill="#88F4FF"/>
<path d="M14.1184 8.23663H12.0591V18.5326H14.1184V8.23663Z" fill="#FFA4C0"/>
<path d="M16.1777 8.23663H14.1184V18.5326H16.1777V8.23663Z" fill="#FFF278"/>
<path d="M15.1479 21.6216H16.1776V20.5919H15.1479V21.6216Z" fill="#88F4FF"/>
<path d="M14.1183 21.6216H15.1479V20.5919H14.1183V21.6216Z" fill="#FFF278"/>
<path d="M3.82238 6.17733H4.85205H5.88171H6.91138H7.94103H8.9707H10.0004H11.0294H12.059H13.0887H14.1184H15.148H16.1777H17.2073H18.237V5.14831H17.2073H16.1777H15.148H14.1184H13.0887V4.11865H12.059H11.0294H10.0004H8.9707H7.94103V5.14831H6.91138H5.88171H4.85205H3.82238H2.79273H1.76306V6.17733H2.79273H3.82238Z" fill="#110078"/>
<path d="M1.76306 19.5623V18.5326V17.5029V16.4739V15.4443V14.4146V13.3849V12.3553V11.3256V10.296V9.26629V8.23663V7.20697V6.17731H0.733398V7.20697V8.23663V9.26629V10.296V11.3256V12.3553V13.3849V14.4146V15.4443V16.4739V17.5029V18.5326V19.5623V20.5919V21.6216H1.76306V20.5919V19.5623Z" fill="#110078"/>
<path d="M3.82238 16.4739V15.4443V14.4146V13.3849V12.3553V11.3256V10.296V9.2663V8.23663H2.79272V9.2663V10.296V11.3256V12.3553V13.3849V14.4146V15.4443V16.4739V17.5029V18.5326H3.82238V17.5029V16.4739Z" fill="#110078"/>
<path d="M5.88172 8.23663H6.91138H7.94104H8.9707H10.0004H11.0294H12.059H13.0887H14.1184H15.148H16.1777V7.20697H15.148H14.1184H13.0887H12.059H11.0294H10.0004H8.9707H7.94104H6.91138H5.88172H4.85205H3.82239V8.23663H4.85205H5.88172Z" fill="#110078"/>
<path d="M7.94103 3.08899H6.91138V4.11865H7.94103V3.08899Z" fill="#110078"/>
<path d="M6.91138 2.05933H5.88171V3.08899H6.91138V2.05933Z" fill="#110078"/>
<path d="M5.88172 1.02966H4.85205V2.05933H5.88172V1.02966Z" fill="#110078"/>
<path d="M4.85205 0H3.82239V1.02966H4.85205V0Z" fill="#110078"/>
<path d="M16.1777 21.6216H15.148H14.1184H13.0887H12.059H11.0294H10.0004H8.9707H7.94103H6.91138H5.88171H4.85205H3.82238H2.79273H1.76306V22.6512H2.79273H3.82238H4.85205H5.88171H6.91138H7.94103H8.9707H10.0004H11.0294H12.059H13.0887H14.1184H15.148H16.1777H17.2073H18.237V21.6216H17.2073H16.1777Z" fill="#110078"/>
<path d="M18.2371 6.17731V7.20697V8.23663V9.26629V10.296V11.3256V12.3553V13.3849V14.4146V15.4443V16.4739V17.5029V18.5326V19.5623V20.5919V21.6216H19.2667V20.5919V19.5623V18.5326V17.5029V16.4739V15.4443V14.4146V13.3849V12.3553V11.3256V10.296V9.26629V8.23663V7.20697V6.17731H18.2371Z" fill="#110078"/>
<path d="M16.1776 9.2663V10.296V11.3256V12.3553V13.3849V14.4146V15.4443V16.4739V17.5029V18.5326H17.2073V17.5029V16.4739V15.4443V14.4146V13.3849V12.3553V11.3256V10.296V9.2663V8.23663H16.1776V9.2663Z" fill="#110078"/>
<path d="M14.1184 18.5326H13.0887H12.059H11.0294H10.0004H8.9707H7.94104H6.91138H5.88172H4.85205H3.82239V19.5623H4.85205H5.88172H6.91138H7.94104H8.9707H10.0004H11.0294H12.059H13.0887H14.1184H15.148H16.1777V18.5326H15.148H14.1184Z" fill="#110078"/>
<path d="M14.1184 3.08899H13.0887V4.11865H14.1184V3.08899Z" fill="#110078"/>
<path d="M15.1481 2.05933H14.1184V3.08899H15.1481V2.05933Z" fill="#110078"/>
<path d="M16.1776 1.02966H15.1479V2.05933H16.1776V1.02966Z" fill="#110078"/>
<path d="M17.2073 0H16.1776V1.02966H17.2073V0Z" fill="#110078"/>
</svg>
