<svg width="13" height="26" viewBox="0 0 13 26" fill="none" xmlns="http://www.w3.org/2000/svg">
<path d="M10.817 5.31396H1.51831V24.576H10.817V5.31396Z" fill="#0085FF"/>
<path d="M8.82504 9.29865H2.84705V12.62H9.48905V9.29865H8.82504ZM4.83971 11.9553H4.17571V11.2913H3.5117V10.6273H4.17571V9.9633H5.50436V10.6273H4.17571V11.2913H5.50436V11.9553H4.84036H4.83971ZM8.82504 11.9553H6.83238V9.96265H7.49638V11.2913H8.82504V11.9553Z" fill="#88F4FF"/>
<path d="M7.49637 6.64203H6.83237H6.16771H5.50371H4.8397H4.17505V7.30604H4.8397H5.50371H6.16771H6.83237H7.49637H8.16038V6.64203H7.49637Z" fill="#110078"/>
<path d="M4.17506 9.29865H4.83971H5.50372H6.16772H6.83238H7.49638H8.16039H8.82504H9.48905V8.63464H8.82504H8.16039H7.49638H6.83238H6.16772H5.50372H4.83971H4.17506H3.51105H2.84705V9.29865H3.51105H4.17506Z" fill="#110078"/>
<path d="M8.16039 12.62H7.49638H6.83238H6.16772H5.50372H4.83971H4.17506H3.51105H2.84705V13.284H3.51105H4.17506H4.83971H5.50372H6.16772H6.83238H7.49638H8.16039H8.82504H9.48905V12.62H8.82504H8.16039Z" fill="#110078"/>
<path d="M9.48901 9.29865V9.9633V10.6273V11.2913V11.956V12.62H10.153V11.956V11.2913V10.6273V9.9633V9.29865H9.48901Z" fill="#110078"/>
<path d="M2.84703 11.2913V10.6273V9.9633V9.29865H2.18237V9.9633V10.6273V11.2913V11.956V12.62H2.84703V11.956V11.2913Z" fill="#110078"/>
<path d="M7.4964 11.2913V10.6273V9.96332H6.8324V10.6273V11.2913V11.956H7.4964H8.16041H8.82506V11.2913H8.16041H7.4964Z" fill="#0085FF"/>
<path d="M4.17499 10.6273H3.51099V11.2913H4.17499V10.6273Z" fill="#0085FF"/>
<path d="M4.8397 11.956H5.50371V11.2913H4.8397H4.17505V11.956H4.8397Z" fill="#0085FF"/>
<path d="M4.17505 9.96332V10.6273H4.8397H5.50371V9.96332H4.8397H4.17505Z" fill="#0085FF"/>
<path d="M6.83173 1.99268H6.16772V2.65668H6.83173V1.99268Z" fill="#CB00AA"/>
<path d="M6.16767 1.32867H5.50366V1.99268H6.16767V1.32867Z" fill="#CB00AA"/>
<path d="M7.4964 0.664001H6.8324V1.32801H7.4964V0.664001Z" fill="#CB00AA"/>
<path d="M6.83173 0H6.16772V0.664006H6.83173V0Z" fill="#CB00AA"/>
<path d="M10.8171 2.65668H11.4811V1.99267H10.8171V2.65668Z" fill="#CB00AA"/>
<path d="M11.4816 1.99268H12.1456V1.32867H11.4816V1.99268Z" fill="#CB00AA"/>
<path d="M10.1536 1.32867H10.8176V0.664669L10.1536 0.664669V1.32867Z" fill="#CB00AA"/>
<path d="M10.8171 0.664001L11.4811 0.664001V-4.05312e-06L10.8171 -4.05312e-06V0.664001Z" fill="#CB00AA"/>
<path d="M3.51105 13.9487H2.84705V14.6127H3.51105V13.9487Z" fill="#88F4FF"/>
<path d="M4.17499 14.6127H3.51099V15.2767H4.17499V14.6127Z" fill="#88F4FF"/>
<path d="M3.51105 16.6053H2.84705V17.2694H3.51105V16.6053Z" fill="#88F4FF"/>
<path d="M4.17499 16.6053H3.51099V17.2694H4.17499V16.6053Z" fill="#88F4FF"/>
<path d="M8.8244 16.6053H8.1604V17.2694H8.8244V16.6053Z" fill="#88F4FF"/>
<path d="M9.48896 16.6053H8.82495V17.2694H9.48896V16.6053Z" fill="#88F4FF"/>
<path d="M6.16767 16.6053H5.50366V17.2694H6.16767V16.6053Z" fill="#88F4FF"/>
<path d="M6.83173 16.6053H6.16772V17.2694H6.83173V16.6053Z" fill="#88F4FF"/>
<path d="M3.51105 18.598H2.84705V19.262H3.51105V18.598Z" fill="#88F4FF"/>
<path d="M4.17499 18.598H3.51099V19.262H4.17499V18.598Z" fill="#88F4FF"/>
<path d="M8.8244 18.598H8.1604V19.262H8.8244V18.598Z" fill="#88F4FF"/>
<path d="M9.48896 18.598H8.82495V19.262H9.48896V18.598Z" fill="#88F4FF"/>
<path d="M6.16767 18.598H5.50366V19.262H6.16767V18.598Z" fill="#88F4FF"/>
<path d="M6.83173 18.598H6.16772V19.262H6.83173V18.598Z" fill="#88F4FF"/>
<path d="M3.51105 20.5906H2.84705V21.2546H3.51105V20.5906Z" fill="#88F4FF"/>
<path d="M4.17499 20.5906H3.51099V21.2546H4.17499V20.5906Z" fill="#88F4FF"/>
<path d="M8.8244 20.5906H8.1604V21.2546H8.8244V20.5906Z" fill="#88F4FF"/>
<path d="M9.48896 20.5906H8.82495V21.2546H9.48896V20.5906Z" fill="#88F4FF"/>
<path d="M6.16767 20.5906H5.50366V21.2546H6.16767V20.5906Z" fill="#88F4FF"/>
<path d="M6.83173 20.5906H6.16772V21.2546H6.83173V20.5906Z" fill="#88F4FF"/>
<path d="M3.51105 22.5833H2.84705V23.2473H3.51105V22.5833Z" fill="#88F4FF"/>
<path d="M4.17499 22.5833H3.51099V23.2473H4.17499V22.5833Z" fill="#88F4FF"/>
<path d="M8.8244 22.5833H8.1604V23.2473H8.8244V22.5833Z" fill="#88F4FF"/>
<path d="M9.48896 22.5833H8.82495V23.2473H9.48896V22.5833Z" fill="#88F4FF"/>
<path d="M6.16767 22.5833H5.50366V23.2473H6.16767V22.5833Z" fill="#88F4FF"/>
<path d="M6.83173 22.5833H6.16772V23.2473H6.83173V22.5833Z" fill="#88F4FF"/>
<path d="M9.48896 13.9487H8.82495V14.6127H9.48896V13.9487Z" fill="#88F4FF"/>
<path d="M8.8244 14.6127H8.1604V15.2767H8.8244V14.6127Z" fill="#88F4FF"/>
<path d="M6.16767 14.6127H5.50366V15.2767H6.16767V14.6127Z" fill="#88F4FF"/>
<path d="M6.83173 14.6127H6.16772V15.2767H6.83173V14.6127Z" fill="#88F4FF"/>
<path d="M10.8171 4.64935H10.1531V5.31336H10.8171V4.64935Z" fill="#110078"/>
<path d="M7.49631 3.32133V3.98534V4.64934H6.8323H6.16764H5.50364H4.83963H4.17498H3.51097H2.84697H2.18231H1.51831V5.314H2.18231H2.84697H3.51097H4.17498H4.83963H5.50364H6.16764H6.8323H7.49631H8.16031H8.82496V4.64934H8.16031V3.98534V3.32133V2.65668H7.49631V3.32133Z" fill="#110078"/>
<path d="M10.153 3.32133V2.65668H9.48901V3.32133V3.98534V4.64934H10.153V3.98534V3.32133Z" fill="#110078"/>
<path d="M8.82505 1.99268H8.1604V2.65668H8.82505H9.48906V1.99268H8.82505Z" fill="#110078"/>
<path d="M10.8176 5.31396V5.97797V6.64198V7.30598V7.97063V8.63464V9.29865V9.9633V10.6273V11.2913V11.956V12.62V13.284V13.9486V14.6126V15.2766V15.9413V16.6053V17.2693V17.934V18.598V19.262V19.926V20.5906V21.2546V21.9186V22.5833V23.2473V23.9113V24.576H11.4816V23.9113V23.2473V22.5833V21.9186V21.2546V20.5906V19.926V19.262V18.598V17.934V17.2693V16.6053V15.9413V15.2766V14.6126V13.9486V13.284V12.62V11.956V11.2913V10.6273V9.9633V9.29865V8.63464V7.97063V7.30598V6.64198V5.97797V5.31396H10.8176Z" fill="#110078"/>
<path d="M0.85437 5.31396V5.97797V6.64198V7.30598V7.97063V8.63464V9.29865V9.9633V10.6273V11.2913V11.956V12.62V13.284V13.9486V14.6126V15.2766V15.9413V16.6053V17.2693V17.934V18.598V19.262V19.926V20.5906V21.2546V21.9186V22.5833V23.2473V23.9113V24.576H1.51838V23.9113V23.2473V22.5833V21.9186V21.2546V20.5906V19.926V19.262V18.598V17.934V17.2693V16.6053V15.9413V15.2766V14.6126V13.9486V13.284V12.62V11.956V11.2913V10.6273V9.9633V9.29865V8.63464V7.97063V7.30598V6.64198V5.97797V5.31396H0.85437Z" fill="#110078"/>
<path d="M10.153 24.576H9.48897H8.82496H8.16031H7.4963H6.8323H6.16764H5.50364H4.83963H4.17498H3.51097H2.84697H2.18231H1.51831V25.24H2.18231H2.84697H3.51097H4.17498H4.83963H5.50364H6.16764H6.8323H7.4963H8.16031H8.82496H9.48897H10.153H10.8176V24.576H10.153Z" fill="#110078"/>
<path d="M9.48906 2.65668H8.1604V4.64934H9.48906V2.65668Z" fill="#0085FF"/>
<path d="M10.1536 4.64935H8.82495V5.31336H10.1536V4.64935Z" fill="#0085FF"/>
</svg>
