<svg width="22" height="21" viewBox="0 0 22 21" fill="none" xmlns="http://www.w3.org/2000/svg">
<path d="M19.3597 2.50782V1.67167H18.5235V0.83551H1.80493V19.2264H18.5235H20.1958V2.50782H19.3597Z" fill="#83A6FF"/>
<path d="M16.8518 10.8668H5.1488V19.2264H16.8518V10.8668Z" fill="#FFA4C0"/>
<path d="M6.82047 6.68732H5.98431H5.1488V7.52347H5.98431H6.82047H7.65662V6.68732H6.82047Z" fill="#110078"/>
<path d="M5.14889 5.01564V4.17949V3.34333V2.50782V1.67167V0.83551H4.31274V1.67167V2.50782V3.34333V4.17949V5.01564V5.85115V6.68731H5.14889V5.85115V5.01564Z" fill="#110078"/>
<path d="M15.1801 0H14.3439H13.5078H12.6723H11.8361H10.9999H10.1644H9.32829H8.49213H7.65662V0.835508V1.67166V2.50782V3.34333V4.17948V5.01564V5.85115V6.6873V7.52346H8.49213H9.32829H10.1644H10.9999H11.8361H12.6723H13.5078H14.3439H15.1801V6.6873H14.3439H13.5078H12.6723H11.8361H10.9999H10.1644H9.32829H8.49213V5.85115V5.01564V4.17948V3.34333V2.50782V1.67166V0.835508H9.32829H10.1644H10.9999H11.8361H12.6723H13.5078H14.3439H15.1801V1.67166V2.50782V3.34333V4.17948V5.01564V5.85115V6.6873H16.0156V5.85115V5.01564V4.17948V3.34333V2.50782V1.67166V0.835508V0H15.1801Z" fill="#CB00AA"/>
<path d="M11.8362 1.67163H11V5.85111H13.5078V1.67163H11.8362ZM12.6723 3.34329V5.01496H11.8362V2.50714H12.6723V3.34329Z" fill="#CB00AA"/>
<path d="M19.3596 0.83551H18.5234V1.67167H19.3596V0.83551Z" fill="#110078"/>
<path d="M20.1958 1.67163H19.3596V2.50779H20.1958V1.67163Z" fill="#110078"/>
<path d="M3.47715 17.5547H2.64099V18.3909H3.47715V17.5547Z" fill="#110078"/>
<path d="M19.3596 17.5547H18.5234V18.3909H19.3596V17.5547Z" fill="#110078"/>
<path d="M0.96875 1.67167V2.50782V3.34333V4.17949V5.01564V5.85115V6.68731V7.52346V8.35897V9.19513V10.0313V10.8668V11.7029V12.5391V13.3746V14.2108V15.0469V15.8824V16.7186V17.5547V18.3902V19.2264H1.80491V18.3902V17.5547V16.7186V15.8824V15.0469V14.2108V13.3746V12.5391V11.7029V10.8668V10.0313V9.19513V8.35897V7.52346V6.68731V5.85115V5.01564V4.17949V3.34333V2.50782V1.67167V0.83551H0.96875V1.67167Z" fill="#110078"/>
<path d="M5.98441 0H5.1489H4.31275H3.47659H2.64108H1.80493V0.835508H2.64108H3.47659H4.31275H5.1489H5.98441H6.82057H7.65672V0H6.82057H5.98441Z" fill="#110078"/>
<path d="M17.6879 0H16.8518H16.0156V0.835508H16.8518H17.6879H18.5234V0H17.6879Z" fill="#110078"/>
<path d="M16.8518 10.8668V11.7029V12.5391V13.3746V14.2107V15.0469V15.8824V16.7186V17.5547V18.3902V19.2264H16.0157H15.1802H14.344H13.5079H12.6724H11.8362H11H10.1645H9.32838H8.49222H7.65671H6.82056H5.98441H5.14889V18.3902V17.5547V16.7186V15.8824V15.0469V14.2107V13.3746V12.5391V11.7029V10.8668H4.31274V11.7029V12.5391V13.3746V14.2107V15.0469V15.8824V16.7186V17.5547V18.3902V19.2264V20.0625H5.14889H5.98441H6.82056H7.65671H8.49222H9.32838H10.1645H11H11.8362H12.6724H13.5079H14.344H15.1802H16.0157H16.8518H17.688V19.2264V18.3902V17.5547V16.7186V15.8824V15.0469V14.2107V13.3746V12.5391V11.7029V10.8668H16.8518Z" fill="#CB00AA"/>
<path d="M6.82047 10.8668H7.65662H8.49213H9.32829H10.1644H11H11.8361H12.6723H13.5078H14.3439H15.1801H16.0156H16.8518V10.0312H16.0156H15.1801H14.3439H13.5078H12.6723H11.8361H11H10.1644H9.32829H8.49213H7.65662H6.82047H5.98431H5.1488V10.8668H5.98431H6.82047Z" fill="#CB00AA"/>
<path d="M9.32829 14.2107H10.1644H10.9999H11.8361H12.6723H13.5078H14.3439V13.3746H13.5078H12.6723H11.8361H10.9999H10.1644H9.32829H8.49213H7.65662V14.2107H8.49213H9.32829Z" fill="#CB00AA"/>
<path d="M9.32829 16.7185H10.1644H10.9999H11.8361H12.6723H13.5078H14.3439V15.8824H13.5078H12.6723H11.8361H10.9999H10.1644H9.32829H8.49213H7.65662V16.7185H8.49213H9.32829Z" fill="#CB00AA"/>
<path d="M20.1958 2.50781V3.34332V4.17948V5.01563V5.85114V6.6873V7.52345V8.35896V9.19512V10.0313V10.8668V11.7029V12.5391V13.3746V14.2108V15.0469V15.8824V16.7186V17.5547V18.3902V19.2264H21.0313V18.3902V17.5547V16.7186V15.8824V15.0469V14.2108V13.3746V12.5391V11.7029V10.8668V10.0313V9.19512V8.35896V7.52345V6.6873V5.85114V5.01563V4.17948V3.34332V2.50781H20.1958Z" fill="#110078"/>
<path d="M2.64108 19.2264H1.80493V20.0625H2.64108H3.47659H4.31275V19.2264H3.47659H2.64108Z" fill="#110078"/>
<path d="M18.5235 19.2264H17.688V20.0625H18.5235H19.3597H20.1958V19.2264H19.3597H18.5235Z" fill="#110078"/>
<path d="M13.5078 0.83551H8.49219V6.68731H15.1795V0.83551H13.5078ZM13.5078 5.85115H11V1.67167H13.5078V5.85115Z" fill="#FFA4C0"/>
</svg>
